<?xml version="1.0" standalone="no"?>
<!DOCTYPE svg PUBLIC "-//W3C//DTD SVG 20010904//EN"
 "http://www.w3.org/TR/2001/REC-SVG-20010904/DTD/svg10.dtd">
<svg version="1.0" xmlns="http://www.w3.org/2000/svg"
 width="64.000000pt" height="64.000000pt" viewBox="0 0 64.000000 64.000000"
 preserveAspectRatio="xMidYMid meet">

<g transform="translate(0.000000,64.000000) scale(0.100000,-0.100000)"
fill="#000000" stroke="none">
<path d="M345 624 c-158 -82 -307 -171 -321 -192 -25 -37 -29 -94 -10 -130 19
-37 321 -269 376 -289 93 -33 188 9 231 102 27 59 23 97 -22 204 -93 219 -137
301 -164 311 -36 14 -55 13 -90 -6z m87 -41 c34 -31 11 -93 -35 -93 -27 0 -57
28 -57 53 0 48 56 73 92 40z m-100 -100 c11 -12 31 -24 44 -27 28 -7 94 20 94
38 1 14 16 -12 46 -80 l24 -55 -37 8 c-57 11 -101 5 -145 -19 -52 -30 -82 -80
-88 -150 l-5 -57 -57 43 -57 43 32 14 c92 41 102 176 17 228 l-30 18 63 34 62
35 9 -26 c5 -14 17 -35 28 -47z m-159 -45 c33 -17 46 -39 47 -76 0 -46 -16
-71 -55 -88 -93 -39 -168 75 -96 147 31 31 67 37 104 17z m347 -120 c135 -70
87 -278 -65 -278 -90 0 -165 84 -150 170 12 69 78 129 145 130 14 0 46 -10 70
-22z"/>
<path d="M380 545 c0 -8 7 -15 15 -15 8 0 15 7 15 15 0 8 -7 15 -15 15 -8 0
-15 -7 -15 -15z"/>
<path d="M92 398 c-18 -18 -14 -63 8 -83 45 -40 109 20 75 71 -17 26 -62 33
-83 12z m58 -37 c0 -14 -18 -23 -30 -16 -6 4 -8 11 -5 16 8 12 35 12 35 0z"/>
<path d="M393 281 c-88 -55 -49 -201 54 -201 69 0 112 42 113 107 0 87 -94
140 -167 94z m112 -41 c24 -26 23 -76 -1 -100 -47 -46 -124 -15 -124 50 0 62
84 95 125 50z"/>
</g>
</svg>
