<?xml version="1.0" encoding="utf-8"?>
<!-- Generator: Adobe Illustrator 25.0.1, SVG Export Plug-In . SVG Version: 6.00 Build 0)  -->
<svg version="1.1" id="Capa_1" xmlns="http://www.w3.org/2000/svg" xmlns:xlink="http://www.w3.org/1999/xlink" x="0px" y="0px"
	 viewBox="0 0 200 100" style="enable-background:new 0 0 200 100;" xml:space="preserve">
<g>
	<path d="M29.2,49.9h-7l-1.9,3.2h-4.9l10.5-16.4h4.6l4,16.4h-4.6L29.2,49.9z M28.5,46.5l-1.1-5.3l-3.1,5.3H28.5z"/>
	<path d="M51.3,40.4l-2.5,12.7h-4.2l0.3-1.3c-0.5,0.5-1.2,0.9-1.8,1.2c-0.7,0.2-1.4,0.4-2.1,0.4c-1.4,0-2.5-0.4-3.3-1.1
		c-0.8-0.8-1.2-1.8-1.2-3.2c0-0.5,0.1-1,0.2-1.6l1.4-7h4.5L41,47c-0.1,0.3-0.1,0.6-0.1,0.9c0,1.1,0.6,1.7,1.7,1.7
		c0.8,0,1.4-0.2,1.9-0.7c0.5-0.5,0.8-1.2,1-2.1l1.3-6.3H51.3z"/>
	<path d="M57.5,48.4c0,0.2,0,0.4,0,0.4c0,0.7,0.4,1.1,1.2,1.1c0.4,0,0.9-0.1,1.3-0.4l0.6,3.1c-0.9,0.5-2,0.8-3.3,0.8
		c-1.3,0-2.4-0.3-3.1-1c-0.8-0.7-1.2-1.6-1.2-2.7c0-0.5,0-0.9,0.1-1.2l0.8-4.2H52l0.7-3.3h1.9l0.7-3.3h4.5L59,40.9h2.9l-0.7,3.3
		h-2.9L57.5,48.4z"/>
	<path d="M65.3,52.6c-1-0.5-1.8-1.2-2.3-2s-0.8-1.9-0.8-3.1c0-1.4,0.3-2.6,1-3.8c0.7-1.1,1.6-2,2.8-2.6c1.2-0.6,2.5-1,4-1
		c1.3,0,2.5,0.2,3.5,0.7c1,0.5,1.8,1.2,2.3,2c0.5,0.9,0.8,1.9,0.8,3c0,1.4-0.3,2.6-1,3.8c-0.7,1.1-1.6,2-2.8,2.6c-1.2,0.6-2.5,1-4,1
		C67.4,53.3,66.3,53.1,65.3,52.6z M71.2,48.8c0.6-0.7,0.8-1.5,0.8-2.6c0-0.8-0.2-1.3-0.6-1.8c-0.4-0.4-1-0.7-1.8-0.7
		c-0.9,0-1.6,0.3-2.2,1s-0.8,1.5-0.8,2.6c0,0.8,0.2,1.3,0.6,1.8c0.4,0.4,1,0.6,1.8,0.6C69.9,49.7,70.7,49.4,71.2,48.8z"/>
	<path d="M105.7,36.7L97,53.1h-5l-1.2-9.9l-5.2,9.9h-5l-2-16.4h4.6l1.3,10.5L90,36.7h4.3l1.2,10.6l5.6-10.6H105.7z"/>
	<path d="M117,47.9h-9.3c0.2,1.4,1.1,2.1,2.9,2.1c0.6,0,1.1-0.1,1.6-0.3c0.5-0.2,1-0.4,1.4-0.8l1.9,2.8c-1.5,1.1-3.3,1.6-5.4,1.6
		c-1.3,0-2.5-0.2-3.6-0.7c-1-0.5-1.8-1.1-2.4-2c-0.6-0.9-0.8-1.9-0.8-3.1c0-1.4,0.3-2.6,1-3.8c0.6-1.1,1.6-2,2.7-2.6s2.5-1,4-1
		c1.3,0,2.4,0.2,3.3,0.7c0.9,0.5,1.7,1.1,2.2,2c0.5,0.8,0.8,1.8,0.8,2.9C117.3,46.4,117.2,47.1,117,47.9z M109,43.9
		c-0.5,0.4-0.8,0.9-1.1,1.6h5.2c0-0.7-0.2-1.2-0.6-1.6c-0.4-0.4-1-0.6-1.7-0.6C110.1,43.4,109.5,43.5,109,43.9z"/>
	<path d="M130.7,40.9c0.8,0.5,1.5,1.1,2,2c0.5,0.9,0.8,1.9,0.8,3.1c0,1.4-0.3,2.6-0.9,3.8c-0.6,1.1-1.5,2-2.5,2.6
		c-1.1,0.6-2.2,1-3.5,1c-2,0-3.3-0.7-4.1-2l-0.4,1.8h-4.2l3.5-17.4h4.5l-1.1,5.7c1-0.8,2.1-1.2,3.4-1.2
		C129,40.2,129.9,40.4,130.7,40.9z M128.1,48.8c0.6-0.7,0.8-1.5,0.8-2.6c0-0.8-0.2-1.3-0.6-1.8c-0.4-0.4-1-0.7-1.8-0.7
		c-0.9,0-1.6,0.3-2.2,1c-0.6,0.7-0.8,1.5-0.8,2.6c0,0.8,0.2,1.3,0.6,1.8c0.4,0.4,1,0.6,1.8,0.6C126.8,49.7,127.5,49.4,128.1,48.8z"
		/>
	<path d="M145.6,49.9h-7l-1.9,3.2h-4.9l10.5-16.4h4.6l4,16.4h-4.6L145.6,49.9z M144.9,46.5l-1.1-5.3l-3.1,5.3H144.9z"/>
	<path d="M164.9,40.9c0.8,0.5,1.5,1.1,2,2c0.5,0.9,0.8,1.9,0.8,3.1c0,1.4-0.3,2.6-0.9,3.8c-0.6,1.1-1.5,2-2.5,2.6
		c-1.1,0.6-2.2,1-3.5,1c-1.8,0-3.1-0.6-3.9-1.7l-1.2,6.1h-4.5l3.5-17.3h4.2l-0.3,1.2c1-0.9,2.2-1.4,3.7-1.4
		C163.2,40.2,164,40.4,164.9,40.9z M162.2,48.8c0.6-0.7,0.8-1.5,0.8-2.6c0-0.8-0.2-1.3-0.6-1.8c-0.4-0.4-1-0.7-1.8-0.7
		c-0.9,0-1.6,0.3-2.2,1c-0.6,0.7-0.8,1.5-0.8,2.6c0,0.8,0.2,1.3,0.6,1.8c0.4,0.4,1,0.6,1.8,0.6C161,49.7,161.7,49.4,162.2,48.8z"/>
	<path d="M181.2,40.9c0.8,0.5,1.5,1.1,2,2c0.5,0.9,0.8,1.9,0.8,3.1c0,1.4-0.3,2.6-0.9,3.8c-0.6,1.1-1.5,2-2.5,2.6
		c-1.1,0.6-2.2,1-3.5,1c-1.8,0-3.1-0.6-3.9-1.7l-1.2,6.1h-4.5l3.5-17.3h4.2l-0.3,1.2c1-0.9,2.2-1.4,3.7-1.4
		C179.5,40.2,180.4,40.4,181.2,40.9z M178.6,48.8c0.6-0.7,0.8-1.5,0.8-2.6c0-0.8-0.2-1.3-0.6-1.8c-0.4-0.4-1-0.7-1.8-0.7
		c-0.9,0-1.6,0.3-2.2,1c-0.6,0.7-0.8,1.5-0.8,2.6c0,0.8,0.2,1.3,0.6,1.8c0.4,0.4,1,0.6,1.8,0.6C177.3,49.7,178,49.4,178.6,48.8z"/>
</g>
</svg>
